<svg xmlns="http://www.w3.org/2000/svg" xmlns:xlink="http://www.w3.org/1999/xlink" width="1024" zoomAndPan="magnify" viewBox="0 0 768 767.999994" height="1024" preserveAspectRatio="xMidYMid meet" version="1.0"><defs><clipPath id="9c7bf4e28d"><path d="M 113 41 L 673.746094 41 L 673.746094 730 L 113 730 Z M 113 41 " clip-rule="nonzero"/></clipPath></defs><g clip-path="url(#9c7bf4e28d)"><path fill="#ffffff" d="M 530.046875 403.804688 L 350.445312 403.804688 C 349.886719 405.382812 349.257812 406.929688 348.5625 408.449219 C 347.867188 409.96875 347.105469 411.457031 346.273438 412.90625 C 345.445312 414.359375 344.550781 415.769531 343.59375 417.144531 C 342.636719 418.515625 341.621094 419.839844 340.546875 421.121094 C 339.472656 422.402344 338.339844 423.628906 337.15625 424.808594 C 335.96875 425.988281 334.730469 427.109375 333.445312 428.179688 C 332.15625 429.246094 330.824219 430.253906 329.449219 431.203125 C 328.070312 432.148438 326.652344 433.035156 325.195312 433.855469 C 323.738281 434.675781 322.25 435.429688 320.722656 436.117188 C 319.199219 436.800781 317.648438 437.417969 316.066406 437.964844 C 314.488281 438.515625 312.886719 438.988281 311.261719 439.394531 C 309.640625 439.796875 308.003906 440.125 306.351562 440.382812 C 304.699219 440.636719 303.039062 440.820312 301.367188 440.925781 C 299.699219 441.035156 298.03125 441.066406 296.359375 441.023438 C 294.6875 440.980469 293.019531 440.863281 291.359375 440.671875 C 289.699219 440.476562 288.050781 440.210938 286.414062 439.871094 C 264.804688 435.59375 247.476562 418.207031 243.199219 396.601562 C 236.109375 360.816406 263.34375 329.421875 297.835938 329.421875 C 322.140625 329.421875 342.734375 344.949219 350.386719 366.613281 L 463.03125 366.613281 C 544.226562 354.964844 606.175781 281.59375 602.347656 196.40625 C 598.410156 108.800781 523.460938 41.167969 461.90625 41.167969 L 152.554688 41.167969 C 128.191406 41.167969 113.675781 56.585938 113.675781 75.601562 L 113.675781 694.8125 C 113.675781 713.832031 134.324219 729.25 158.6875 729.25 L 528.921875 729.25 C 590.476562 729.25 665.480469 661.558594 669.359375 574.011719 C 673.1875 488.824219 611.238281 415.453125 530.046875 403.804688 Z M 242.074219 189.9375 L 354.71875 189.9375 C 355.277344 188.359375 355.902344 186.8125 356.601562 185.289062 C 357.296875 183.769531 358.058594 182.285156 358.886719 180.832031 C 359.71875 179.378906 360.613281 177.96875 361.566406 176.597656 C 362.523438 175.226562 363.539062 173.898438 364.617188 172.621094 C 365.691406 171.339844 366.824219 170.109375 368.007812 168.929688 C 369.195312 167.753906 370.429688 166.628906 371.71875 165.5625 C 373.003906 164.496094 374.335938 163.488281 375.714844 162.539062 C 377.09375 161.589844 378.507812 160.707031 379.964844 159.886719 C 381.421875 159.066406 382.914062 158.3125 384.4375 157.625 C 385.964844 156.9375 387.515625 156.320312 389.097656 155.773438 C 390.675781 155.226562 392.277344 154.75 393.898438 154.347656 C 395.523438 153.945312 397.160156 153.613281 398.8125 153.359375 C 400.464844 153.101562 402.125 152.917969 403.792969 152.8125 C 405.464844 152.707031 407.132812 152.671875 408.804688 152.714844 C 410.476562 152.757812 412.140625 152.875 413.804688 153.070312 C 415.464844 153.261719 417.113281 153.527344 418.75 153.871094 C 440.355469 158.144531 457.6875 175.53125 461.964844 197.136719 C 469.054688 232.921875 441.820312 264.320312 407.328125 264.320312 C 383.023438 264.320312 362.429688 248.789062 354.777344 227.128906 L 242.128906 227.128906 L 242.128906 189.9375 Z M 485.707031 635.117188 C 456.617188 640.910156 430.566406 624.085938 421.675781 599.046875 L 242.074219 599.046875 L 242.074219 561.855469 L 421.675781 561.855469 C 429.328125 540.195312 449.921875 524.664062 474.230469 524.664062 C 508.777344 524.664062 535.953125 556.0625 528.863281 591.847656 C 524.585938 613.453125 507.257812 630.78125 485.652344 635.117188 Z M 3205.246094 170.46875 L 3205.246094 619.011719 L 3110.410156 619.011719 L 3110.410156 170.460938 L 3205.246094 170.460938 Z M 2707.863281 619.011719 L 2606.238281 619.011719 L 2761.085938 170.460938 L 2883.296875 170.460938 L 3037.921875 619.011719 L 2936.296875 619.011719 L 2823.941406 272.960938 L 2820.433594 272.960938 Z M 2701.511719 442.703125 L 2941.554688 442.703125 L 2941.554688 516.730469 L 2701.511719 516.730469 Z M 2281.007812 619.007812 L 2281.007812 282.59375 L 2374.308594 282.59375 L 2374.308594 619.007812 Z M 2327.878906 239.230469 C 2314.007812 239.230469 2302.109375 234.632812 2292.179688 225.433594 C 2282.398438 216.09375 2277.503906 204.917969 2277.503906 191.921875 C 2277.503906 179.078125 2282.398438 168.054688 2292.179688 158.855469 C 2302.109375 149.507812 2314.007812 144.839844 2327.878906 144.839844 C 2341.75 144.839844 2353.574219 149.507812 2363.359375 158.847656 C 2373.292969 168.054688 2378.253906 179.078125 2378.253906 191.921875 C 2378.253906 204.917969 2373.292969 216.089844 2363.359375 225.433594 C 2353.574219 234.632812 2341.75 239.230469 2327.878906 239.230469 Z M 1986.332031 282.601562 L 2048.089844 400.214844 L 2111.390625 282.601562 L 2207.097656 282.601562 L 2109.632812 450.804688 L 2209.726562 619.011719 L 2114.457031 619.011719 L 2048.089844 502.710938 L 1982.824219 619.011719 L 1886.457031 619.011719 L 1986.332031 450.804688 L 1889.964844 282.605469 L 1986.332031 282.605469 Z M 1675.65625 625.578125 C 1641.636719 625.578125 1612.214844 618.347656 1587.398438 603.894531 C 1562.71875 589.292969 1543.667969 568.996094 1530.230469 543.007812 C 1516.800781 516.871094 1510.082031 486.570312 1510.082031 452.113281 C 1510.082031 417.363281 1516.800781 386.992188 1530.230469 361.003906 C 1543.667969 334.867188 1562.71875 314.570312 1587.398438 300.121094 C 1612.214844 285.515625 1641.636719 278.21875 1675.65625 278.21875 C 1709.679688 278.21875 1739.03125 285.515625 1763.703125 300.117188 C 1788.527344 314.578125 1807.652344 334.867188 1821.089844 361.003906 C 1834.519531 386.996094 1841.238281 417.363281 1841.238281 452.113281 C 1841.238281 486.570312 1834.519531 516.871094 1821.089844 543.007812 C 1807.652344 568.996094 1788.527344 589.292969 1763.703125 603.894531 C 1739.03125 618.347656 1709.679688 625.578125 1675.65625 625.578125 Z M 1676.09375 553.296875 C 1691.574219 553.296875 1704.5 548.921875 1714.863281 540.160156 C 1725.226562 531.253906 1733.042969 519.132812 1738.296875 503.800781 C 1743.699219 488.472656 1746.398438 471.027344 1746.398438 451.457031 C 1746.398438 431.894531 1743.699219 414.445312 1738.296875 399.113281 C 1733.042969 383.777344 1725.226562 371.664062 1714.863281 362.757812 C 1704.5 353.851562 1691.574219 349.394531 1676.09375 349.394531 C 1660.476562 349.394531 1647.332031 353.851562 1636.675781 362.757812 C 1626.160156 371.664062 1618.203125 383.777344 1612.800781 399.113281 C 1607.546875 414.445312 1604.917969 431.894531 1604.917969 451.457031 C 1604.917969 471.027344 1607.546875 488.472656 1612.800781 503.800781 C 1618.203125 519.132812 1626.160156 531.253906 1636.675781 540.160156 C 1647.332031 548.921875 1660.476562 553.296875 1676.09375 553.296875 Z M 1268.457031 619.007812 L 1268.457031 282.59375 L 1358.910156 282.59375 L 1358.910156 341.292969 L 1362.417969 341.292969 C 1368.550781 320.417969 1378.839844 304.644531 1393.296875 293.988281 C 1407.75 283.1875 1424.398438 277.785156 1443.230469 277.785156 C 1447.90625 277.785156 1452.941406 278.070312 1458.34375 278.65625 C 1463.746094 279.242188 1468.496094 280.039062 1472.582031 281.066406 L 1472.582031 363.855469 C 1468.203125 362.539062 1462.144531 361.367188 1454.402344 360.351562 C 1447.355469 359.375 1440.273438 358.863281 1433.160156 358.8125 C 1419.429688 358.8125 1407.171875 361.808594 1396.363281 367.792969 C 1391.09375 370.65625 1386.304688 374.167969 1381.992188 378.332031 C 1377.679688 382.496094 1374 387.160156 1370.957031 392.324219 C 1364.824219 402.835938 1361.757812 414.957031 1361.757812 428.679688 L 1361.757812 619.007812 Z M 843.957031 619.011719 L 843.957031 170.460938 L 1023.546875 170.460938 C 1056.546875 170.460938 1084.070312 175.355469 1106.117188 185.136719 C 1128.164062 194.921875 1144.738281 208.5 1155.835938 225.875 C 1166.929688 243.101562 1172.476562 262.964844 1172.476562 285.449219 C 1172.476562 302.96875 1168.972656 318.375 1161.96875 331.660156 C 1158.53125 338.152344 1154.367188 344.136719 1149.480469 349.621094 C 1144.589844 355.101562 1139.117188 359.917969 1133.058594 364.070312 C 1120.9375 372.398438 1107.066406 378.308594 1091.441406 381.816406 L 1091.441406 386.191406 C 1108.527344 386.925781 1124.515625 391.742188 1139.410156 400.652344 C 1154.445312 409.554688 1166.636719 422.039062 1175.984375 438.105469 C 1185.328125 454.015625 1190 473 1190 495.046875 C 1190 518.847656 1184.085938 540.09375 1172.257812 558.777344 C 1160.578125 577.324219 1143.277344 592 1120.351562 602.800781 C 1097.429688 613.605469 1069.179688 619.011719 1035.59375 619.011719 Z M 938.785156 541.476562 L 1016.101562 541.476562 C 1042.53125 541.476562 1061.800781 536.441406 1073.921875 526.363281 C 1086.042969 516.144531 1092.101562 502.5625 1092.101562 485.628906 C 1092.101562 473.214844 1089.109375 462.265625 1083.121094 452.777344 C 1077.132812 443.285156 1068.59375 435.84375 1057.496094 430.441406 C 1046.542969 425.035156 1033.476562 422.332031 1018.292969 422.332031 L 938.785156 422.332031 Z M 938.785156 358.160156 L 1009.089844 358.160156 C 1022.089844 358.160156 1033.625 355.898438 1043.695312 351.371094 C 1053.917969 346.699219 1061.949219 340.128906 1067.789062 331.660156 C 1073.773438 323.191406 1076.769531 313.042969 1076.769531 301.21875 C 1076.769531 285.007812 1071 271.945312 1059.464844 262.011719 C 1048.078125 252.082031 1031.867188 247.121094 1010.847656 247.121094 L 938.785156 247.121094 Z M 938.785156 358.160156 " fill-opacity="1" fill-rule="nonzero"/></g></svg>