<svg xmlns="http://www.w3.org/2000/svg" xmlns:xlink="http://www.w3.org/1999/xlink" width="1024" zoomAndPan="magnify" viewBox="0 0 768 767.999994" height="1024" preserveAspectRatio="xMidYMid meet" version="1.0"><defs><clipPath id="f99e2689d6"><path d="M 113 41 L 673.746094 41 L 673.746094 730 L 113 730 Z M 113 41 " clip-rule="nonzero"/></clipPath></defs><g clip-path="url(#f99e2689d6)"><path fill="#000000" d="M 530.023438 403.890625 L 350.429688 403.890625 C 349.871094 405.46875 349.246094 407.015625 348.550781 408.539062 C 347.855469 410.058594 347.089844 411.542969 346.261719 412.996094 C 345.429688 414.449219 344.539062 415.859375 343.582031 417.230469 C 342.625 418.605469 341.609375 419.929688 340.535156 421.210938 C 339.457031 422.492188 338.328125 423.722656 337.140625 424.898438 C 335.957031 426.078125 334.71875 427.203125 333.433594 428.269531 C 332.144531 429.339844 330.8125 430.347656 329.4375 431.292969 C 328.058594 432.242188 326.640625 433.128906 325.183594 433.949219 C 323.726562 434.769531 322.238281 435.523438 320.710938 436.210938 C 319.1875 436.894531 317.636719 437.511719 316.054688 438.0625 C 314.476562 438.609375 312.875 439.082031 311.25 439.488281 C 309.628906 439.890625 307.992188 440.222656 306.339844 440.476562 C 304.6875 440.734375 303.027344 440.914062 301.359375 441.023438 C 299.6875 441.128906 298.019531 441.160156 296.347656 441.117188 C 294.675781 441.074219 293.011719 440.957031 291.347656 440.765625 C 289.6875 440.574219 288.039062 440.304688 286.402344 439.964844 C 264.796875 435.6875 247.46875 418.296875 243.191406 396.6875 C 236.101562 360.894531 263.335938 329.488281 297.824219 329.488281 C 322.128906 329.488281 342.722656 345.023438 350.375 366.691406 L 463.011719 366.691406 C 544.199219 355.039062 606.148438 281.652344 602.320312 196.445312 C 598.382812 108.820312 523.441406 41.171875 461.886719 41.171875 L 152.550781 41.171875 C 128.191406 41.171875 113.671875 56.59375 113.671875 75.613281 L 113.671875 694.964844 C 113.671875 713.988281 134.324219 729.410156 158.683594 729.410156 L 528.898438 729.410156 C 590.449219 729.410156 665.449219 661.707031 669.332031 574.136719 C 673.15625 488.929688 611.210938 415.539062 530.023438 403.890625 Z M 242.066406 189.972656 L 354.707031 189.972656 C 355.261719 188.398438 355.890625 186.847656 356.585938 185.328125 C 357.28125 183.808594 358.046875 182.320312 358.875 180.867188 C 359.703125 179.417969 360.597656 178.003906 361.554688 176.632812 C 362.511719 175.261719 363.527344 173.933594 364.601562 172.652344 C 365.675781 171.375 366.808594 170.144531 367.996094 168.964844 C 369.179688 167.785156 370.417969 166.664062 371.703125 165.59375 C 372.992188 164.527344 374.324219 163.519531 375.699219 162.570312 C 377.078125 161.621094 378.496094 160.738281 379.953125 159.917969 C 381.410156 159.097656 382.898438 158.34375 384.421875 157.65625 C 385.949219 156.96875 387.5 156.351562 389.082031 155.804688 C 390.660156 155.257812 392.261719 154.78125 393.882812 154.378906 C 395.507812 153.972656 397.144531 153.644531 398.796875 153.386719 C 400.449219 153.132812 402.109375 152.949219 403.777344 152.84375 C 405.445312 152.734375 407.117188 152.703125 408.789062 152.746094 C 410.460938 152.789062 412.125 152.90625 413.785156 153.097656 C 415.449219 153.292969 417.097656 153.558594 418.734375 153.898438 C 440.339844 158.175781 457.667969 175.566406 461.945312 197.179688 C 469.035156 232.972656 441.800781 264.375 407.3125 264.375 C 383.007812 264.375 362.414062 248.84375 354.761719 227.175781 L 242.121094 227.175781 L 242.121094 189.972656 Z M 485.6875 635.253906 C 456.597656 641.050781 430.550781 624.222656 421.660156 599.179688 L 242.066406 599.179688 L 242.066406 561.980469 L 421.660156 561.980469 C 429.3125 540.3125 449.902344 524.777344 474.210938 524.777344 C 508.753906 524.777344 535.929688 556.183594 528.839844 591.976562 C 524.566406 613.585938 507.234375 630.921875 485.632812 635.253906 Z M 3205.082031 170.5 L 3205.082031 619.148438 L 3110.25 619.148438 L 3110.25 170.496094 L 3205.082031 170.496094 Z M 2707.726562 619.148438 L 2606.109375 619.148438 L 2760.945312 170.496094 L 2883.148438 170.496094 L 3037.765625 619.148438 L 2936.148438 619.148438 L 2823.796875 273.019531 L 2820.292969 273.019531 Z M 2701.375 442.796875 L 2941.40625 442.796875 L 2941.40625 516.84375 L 2701.375 516.84375 Z M 2280.894531 619.140625 L 2280.894531 282.65625 L 2374.191406 282.65625 L 2374.191406 619.140625 Z M 2327.761719 239.28125 C 2313.894531 239.28125 2301.992188 234.683594 2292.0625 225.480469 C 2282.285156 216.136719 2277.390625 204.960938 2277.390625 191.960938 C 2277.390625 179.113281 2282.285156 168.085938 2292.0625 158.886719 C 2301.992188 149.539062 2313.894531 144.867188 2327.761719 144.867188 C 2341.628906 144.867188 2353.457031 149.539062 2363.242188 158.878906 C 2373.171875 168.085938 2378.132812 179.113281 2378.132812 191.960938 C 2378.132812 204.960938 2373.171875 216.132812 2363.242188 225.480469 C 2353.457031 234.683594 2341.628906 239.28125 2327.761719 239.28125 Z M 1986.230469 282.660156 L 2047.988281 400.300781 L 2111.28125 282.660156 L 2206.988281 282.660156 L 2109.527344 450.902344 L 2209.613281 619.148438 L 2114.347656 619.148438 L 2047.988281 502.816406 L 1982.726562 619.148438 L 1886.363281 619.148438 L 1986.230469 450.902344 L 1889.871094 282.664062 L 1986.230469 282.664062 Z M 1675.574219 625.714844 C 1641.558594 625.714844 1612.136719 618.484375 1587.320312 604.023438 C 1562.640625 589.421875 1543.589844 569.121094 1530.15625 543.125 C 1516.726562 516.984375 1510.007812 486.675781 1510.007812 452.210938 C 1510.007812 417.453125 1516.726562 387.074219 1530.15625 361.078125 C 1543.589844 334.9375 1562.640625 314.636719 1587.320312 300.183594 C 1612.136719 285.574219 1641.558594 278.277344 1675.574219 278.277344 C 1709.597656 278.277344 1738.941406 285.574219 1763.613281 300.179688 C 1788.4375 314.644531 1807.5625 334.9375 1820.996094 361.078125 C 1834.425781 387.082031 1841.144531 417.453125 1841.144531 452.210938 C 1841.144531 486.675781 1834.425781 516.984375 1820.996094 543.125 C 1807.5625 569.121094 1788.4375 589.421875 1763.613281 604.023438 C 1738.941406 618.484375 1709.597656 625.714844 1675.574219 625.714844 Z M 1676.011719 553.417969 C 1691.492188 553.417969 1704.414062 549.039062 1714.777344 540.277344 C 1725.140625 531.367188 1732.957031 519.246094 1738.210938 503.910156 C 1743.613281 488.578125 1746.3125 471.128906 1746.3125 451.554688 C 1746.3125 431.984375 1743.613281 414.535156 1738.210938 399.195312 C 1732.957031 383.859375 1725.140625 371.746094 1714.777344 362.835938 C 1704.414062 353.925781 1691.492188 349.46875 1676.011719 349.46875 C 1660.394531 349.46875 1647.25 353.925781 1636.59375 362.835938 C 1626.078125 371.746094 1618.121094 383.859375 1612.722656 399.195312 C 1607.464844 414.535156 1604.839844 431.984375 1604.839844 451.554688 C 1604.839844 471.128906 1607.464844 488.578125 1612.722656 503.910156 C 1618.121094 519.246094 1626.078125 531.367188 1636.59375 540.277344 C 1647.25 549.039062 1660.394531 553.417969 1676.011719 553.417969 Z M 1268.394531 619.140625 L 1268.394531 282.65625 L 1358.84375 282.65625 L 1358.84375 341.363281 L 1362.351562 341.363281 C 1368.480469 320.484375 1378.773438 304.710938 1393.226562 294.050781 C 1407.679688 283.246094 1424.328125 277.84375 1443.160156 277.84375 C 1447.835938 277.84375 1452.871094 278.128906 1458.273438 278.714844 C 1463.675781 279.300781 1468.421875 280.097656 1472.507812 281.125 L 1472.507812 363.933594 C 1468.128906 362.617188 1462.070312 361.445312 1454.328125 360.425781 C 1447.28125 359.453125 1440.203125 358.9375 1433.089844 358.890625 C 1419.363281 358.890625 1407.101562 361.882812 1396.292969 367.871094 C 1391.027344 370.734375 1386.238281 374.25 1381.925781 378.414062 C 1377.613281 382.578125 1373.933594 387.246094 1370.890625 392.410156 C 1364.757812 402.921875 1361.691406 415.046875 1361.691406 428.773438 L 1361.691406 619.140625 Z M 843.917969 619.148438 L 843.917969 170.496094 L 1023.496094 170.496094 C 1056.496094 170.496094 1084.019531 175.390625 1106.0625 185.171875 C 1128.109375 194.960938 1144.683594 208.539062 1155.777344 225.917969 C 1166.875 243.152344 1172.421875 263.019531 1172.421875 285.507812 C 1172.421875 303.03125 1168.914062 318.441406 1161.910156 331.730469 C 1158.476562 338.222656 1154.3125 344.210938 1149.425781 349.695312 C 1144.535156 355.175781 1139.0625 359.992188 1133.003906 364.148438 C 1120.882812 372.476562 1107.015625 378.390625 1091.390625 381.898438 L 1091.390625 386.277344 C 1108.472656 387.007812 1124.460938 391.824219 1139.355469 400.738281 C 1154.390625 409.644531 1166.582031 422.132812 1175.925781 438.199219 C 1185.273438 454.113281 1189.941406 473.101562 1189.941406 495.152344 C 1189.941406 518.960938 1184.027344 540.210938 1172.203125 558.898438 C 1160.519531 577.449219 1143.21875 592.128906 1120.296875 602.933594 C 1097.378906 613.738281 1069.128906 619.148438 1035.542969 619.148438 Z M 938.742188 541.59375 L 1016.054688 541.59375 C 1042.480469 541.59375 1061.75 536.558594 1073.871094 526.476562 C 1085.988281 516.257812 1092.050781 502.671875 1092.050781 485.730469 C 1092.050781 473.316406 1089.054688 462.363281 1083.070312 452.875 C 1077.082031 443.382812 1068.542969 435.9375 1057.445312 430.535156 C 1046.492188 425.125 1033.429688 422.421875 1018.242188 422.421875 L 938.742188 422.421875 Z M 938.742188 358.238281 L 1009.042969 358.238281 C 1022.039062 358.238281 1033.574219 355.976562 1043.644531 351.445312 C 1053.867188 346.773438 1061.898438 340.199219 1067.738281 331.730469 C 1073.722656 323.261719 1076.71875 313.105469 1076.71875 301.28125 C 1076.71875 285.070312 1070.949219 272 1059.417969 262.066406 C 1048.027344 252.132812 1031.820312 247.171875 1010.800781 247.171875 L 938.742188 247.171875 Z M 938.742188 358.238281 " fill-opacity="1" fill-rule="nonzero"/></g></svg>