<svg width="341" height="300" viewBox="0 0 341 300" fill="none" xmlns="http://www.w3.org/2000/svg">
<path d="M74.8419 149.684C116.176 149.684 149.684 116.176 149.684 74.8419C149.684 33.5078 116.176 0 74.8419 0C33.5079 0 0 33.5078 0 74.8419C0 116.176 33.5079 149.684 74.8419 149.684Z" fill="white"/>
<path fill-rule="evenodd" clip-rule="evenodd" d="M129.482 163.291C134.895 163.291 140.087 165.442 143.916 169.27C147.743 173.097 149.894 178.289 149.894 183.703V278.849C149.894 284.262 147.743 289.454 143.916 293.282C140.087 297.11 134.895 299.26 129.482 299.26H20.6215C15.2076 299.26 10.0158 297.11 6.18802 293.282C2.36027 289.454 0.209961 284.262 0.209961 278.849V183.703C0.209961 178.289 2.36027 173.097 6.18802 169.27C10.0158 165.442 15.2076 163.291 20.6215 163.291H129.482Z" fill="white"/>
<path fill-rule="evenodd" clip-rule="evenodd" d="M340.365 244.937C340.365 274.978 315.976 299.367 285.935 299.367H217.722C187.681 299.367 163.292 274.978 163.292 244.937C163.292 214.896 187.681 190.507 217.722 190.507H285.935C315.976 190.507 340.365 214.896 340.365 244.937Z" fill="white"/>
<path fill-rule="evenodd" clip-rule="evenodd" d="M340.19 132.844C340.19 132.213 340.173 131.582 340.148 130.95C340.148 130.765 340.131 130.58 340.123 130.395C340.098 129.915 340.064 129.436 340.022 128.956C340.005 128.788 339.997 128.611 339.98 128.443C339.921 127.828 339.845 127.214 339.761 126.599C339.744 126.448 339.711 126.305 339.694 126.153C339.618 125.674 339.542 125.202 339.45 124.731C339.408 124.512 339.366 124.294 339.323 124.075C339.231 123.629 339.138 123.174 339.029 122.728C338.987 122.551 338.953 122.375 338.911 122.198C338.768 121.617 338.617 121.045 338.448 120.473C338.381 120.246 338.314 120.018 338.238 119.8C338.12 119.421 338.002 119.042 337.868 118.663C337.783 118.419 337.699 118.175 337.615 117.931C337.464 117.494 337.295 117.064 337.127 116.635C337.018 116.349 336.9 116.071 336.782 115.785C336.614 115.373 336.437 114.96 336.252 114.557C336.134 114.304 336.016 114.052 335.898 113.799C335.738 113.462 335.57 113.126 335.402 112.798C335.275 112.554 335.158 112.31 335.031 112.074C334.762 111.561 334.476 111.056 334.181 110.551C334.055 110.332 333.921 110.121 333.794 109.911C333.651 109.684 333.517 109.448 333.374 109.221C333.357 109.204 333.34 109.179 333.331 109.162C333.289 109.095 333.247 109.036 333.205 108.968C333.045 108.724 332.885 108.472 332.726 108.228C332.481 107.866 332.237 107.513 331.985 107.159C331.867 106.991 331.749 106.814 331.623 106.646C328.375 101.394 326.498 95.1919 326.498 88.5603C326.498 81.9287 328.316 75.9198 331.48 70.7189C331.48 70.7105 331.488 70.7105 331.488 70.7105C331.514 70.6768 331.539 70.6432 331.564 70.6095C331.732 70.3823 331.892 70.1551 332.052 69.9194C332.288 69.5828 332.524 69.2546 332.751 68.918C332.919 68.6655 333.087 68.4046 333.247 68.1521C333.357 67.9838 333.475 67.8155 333.575 67.6388C333.676 67.4789 333.769 67.319 333.862 67.1591C333.988 66.9487 334.123 66.7299 334.249 66.5195C334.518 66.0566 334.779 65.5853 335.031 65.114C335.141 64.9036 335.25 64.6932 335.36 64.4744C335.57 64.0621 335.772 63.6497 335.974 63.2373C336.083 63.0101 336.193 62.7745 336.294 62.5388C336.462 62.1601 336.63 61.773 336.79 61.3943C336.874 61.1923 336.967 60.9903 337.043 60.7883C337.262 60.2413 337.472 59.6859 337.666 59.1304C337.741 58.9285 337.809 58.7181 337.876 58.5077C338.011 58.1037 338.145 57.6914 338.271 57.2874C338.339 57.0686 338.406 56.8582 338.465 56.6394C338.625 56.0839 338.776 55.5285 338.919 54.9646C338.945 54.8552 338.97 54.7374 339.004 54.628C339.13 54.0978 339.248 53.5676 339.349 53.029C339.391 52.827 339.424 52.6335 339.467 52.4315C339.551 51.9602 339.635 51.4805 339.711 51.0008C339.736 50.8493 339.761 50.6894 339.786 50.538C339.87 49.9236 339.946 49.3093 340.005 48.6865C340.022 48.535 340.03 48.3835 340.047 48.2321C340.089 47.7355 340.123 47.2474 340.157 46.7509C340.165 46.5742 340.173 46.389 340.182 46.2123C340.207 45.5811 340.224 44.9499 340.224 44.3187C340.224 43.6118 340.207 42.9049 340.173 42.198C339.904 36.551 338.558 30.9377 336.134 25.7115C334.013 21.1334 331.059 16.8498 327.281 13.0711C320.809 6.59096 312.831 2.55141 304.474 0.935583C303.077 0.666279 301.68 0.464301 300.266 0.329649C298.861 0.194997 297.447 0.127671 296.033 0.127671C295.402 0.127671 294.771 0.144503 294.139 0.16975C293.954 0.16975 293.769 0.186582 293.584 0.194997C293.104 0.220244 292.624 0.253907 292.145 0.295986C291.976 0.312818 291.8 0.321233 291.631 0.338065C291.017 0.396975 290.403 0.472717 289.788 0.556874C289.637 0.573706 289.494 0.607369 289.351 0.6242C288.871 0.699942 288.4 0.775683 287.92 0.868257C287.701 0.910335 287.482 0.952414 287.272 0.994493C286.818 1.08707 286.372 1.18805 285.926 1.28904C285.749 1.33112 285.572 1.36479 285.395 1.40686C284.815 1.54993 284.242 1.70983 283.67 1.86973C283.443 1.93706 283.224 2.00438 282.997 2.07171C282.618 2.18953 282.231 2.31576 281.852 2.442C281.608 2.52616 281.364 2.61032 281.12 2.69447C280.683 2.85437 280.253 3.01427 279.824 3.18259C279.538 3.29199 279.26 3.40981 278.983 3.52763C278.57 3.69595 278.158 3.88109 277.754 4.06624C277.501 4.18406 277.249 4.30188 276.996 4.4197C276.66 4.5796 276.323 4.74791 275.995 4.91623C275.751 5.04246 275.507 5.16029 275.271 5.28652C274.758 5.55583 274.253 5.84196 273.748 6.13651C273.529 6.26275 273.319 6.3974 273.108 6.53205C272.881 6.67512 272.646 6.80977 272.418 6.95284C272.401 6.96967 272.376 6.9865 272.359 6.99492C272.292 7.03699 272.233 7.07907 272.166 7.12115C271.922 7.28105 271.669 7.44095 271.425 7.60927C271.072 7.84491 270.718 8.09738 270.365 8.34985C270.197 8.47609 270.02 8.58549 269.851 8.71173C264.6 11.9602 258.398 13.8369 251.766 13.8369C245.134 13.8369 239.126 12.0191 233.925 8.8548C233.916 8.8548 233.916 8.84638 233.916 8.84638C233.883 8.82113 233.849 8.79589 233.815 8.77064C233.588 8.60232 233.361 8.44242 233.134 8.28253C232.797 8.04689 232.469 7.81124 232.124 7.58402C231.871 7.4157 231.61 7.24739 231.358 7.08749C231.19 6.97809 231.021 6.86027 230.845 6.75928C230.685 6.65829 230.525 6.56571 230.365 6.47314C230.154 6.34691 229.936 6.21225 229.725 6.08602C229.262 5.81671 228.799 5.55583 228.328 5.30335C228.118 5.18553 227.899 5.07613 227.689 4.96672C227.276 4.75633 226.872 4.55435 226.46 4.36079C226.233 4.25139 225.997 4.14198 225.761 4.04099C225.383 3.87268 224.996 3.70436 224.617 3.54446C224.415 3.46031 224.213 3.36773 224.011 3.29199C223.464 3.07318 222.908 2.86279 222.353 2.66923C222.143 2.59348 221.941 2.52616 221.73 2.45883C221.326 2.32418 220.914 2.18953 220.51 2.06329C220.291 1.99597 220.081 1.92864 219.862 1.86973C219.307 1.70983 218.751 1.55835 218.187 1.41528C218.069 1.39003 217.96 1.36479 217.842 1.33112C217.312 1.20489 216.782 1.08707 216.252 0.986077C216.05 0.943998 215.856 0.910335 215.654 0.868257C215.183 0.784099 214.703 0.699942 214.232 0.6242C214.08 0.598953 213.92 0.573706 213.769 0.548458C213.155 0.464301 212.54 0.388559 211.918 0.329649C211.766 0.312818 211.615 0.304402 211.463 0.28757C210.967 0.245492 210.478 0.211829 209.982 0.178166C209.805 0.16975 209.62 0.161334 209.443 0.152919C208.812 0.127671 208.181 0.11084 207.55 0.11084C204.722 0.11084 201.894 0.380144 199.109 0.918751C197.022 1.32271 194.951 1.87815 192.932 2.58507C186.855 4.70584 181.158 8.19837 176.302 13.0543C174.139 15.2087 172.254 17.5314 170.638 19.9888C169.83 21.2175 169.09 22.4715 168.417 23.7507C165.311 29.5491 163.645 35.8525 163.342 42.2064C163.308 42.9133 163.291 43.6202 163.291 44.3271C163.291 44.9583 163.308 45.5979 163.333 46.2291C163.333 46.4143 163.35 46.5994 163.359 46.7761C163.384 47.2558 163.418 47.7355 163.46 48.2236C163.477 48.392 163.485 48.5687 163.502 48.737C163.561 49.3682 163.636 49.9994 163.729 50.6221C163.737 50.7063 163.754 50.7904 163.771 50.8746C163.855 51.4216 163.948 51.9686 164.049 52.5157C164.082 52.7008 164.116 52.886 164.158 53.0711C164.259 53.5592 164.36 54.0389 164.478 54.527C164.512 54.6785 164.545 54.83 164.579 54.9731C164.73 55.5874 164.899 56.2018 165.075 56.8077C165.118 56.9423 165.16 57.077 165.202 57.2117C165.345 57.6913 165.505 58.171 165.665 58.6423C165.732 58.8359 165.799 59.0295 165.867 59.223C166.035 59.6859 166.212 60.1572 166.388 60.6116C166.447 60.7547 166.498 60.8978 166.557 61.0408C166.792 61.6131 167.036 62.1854 167.297 62.7492C167.39 62.9428 167.482 63.1363 167.575 63.3299C167.76 63.717 167.945 64.0957 168.139 64.4744C168.257 64.7017 168.374 64.9373 168.501 65.1645C168.703 65.5432 168.913 65.9135 169.123 66.2838C169.3 66.5868 169.477 66.8898 169.654 67.1843C169.864 67.5294 170.074 67.8744 170.293 68.211C170.319 68.2447 170.335 68.2784 170.361 68.312C170.739 68.9011 171.135 69.4734 171.547 70.0457C171.581 70.1046 171.623 70.1551 171.657 70.2056C175.006 75.5159 176.95 81.8109 176.95 88.5519C176.95 95.2929 174.888 101.967 171.345 107.378C171.16 107.656 170.975 107.933 170.781 108.203C170.579 108.506 170.377 108.817 170.184 109.12C169.973 109.448 169.771 109.768 169.57 110.105C169.418 110.357 169.267 110.618 169.123 110.87C168.938 111.19 168.762 111.518 168.585 111.838C168.459 112.082 168.324 112.318 168.198 112.562C167.971 113.008 167.743 113.454 167.533 113.909C167.449 114.077 167.373 114.245 167.289 114.413C167.053 114.935 166.826 115.457 166.607 115.979C166.523 116.181 166.447 116.383 166.363 116.585C166.195 117.005 166.035 117.426 165.883 117.847C165.816 118.041 165.74 118.234 165.673 118.436C165.471 119.017 165.286 119.589 165.109 120.178C165.109 120.203 165.092 120.229 165.084 120.262C164.899 120.877 164.739 121.5 164.587 122.114C164.545 122.291 164.503 122.476 164.461 122.652C164.352 123.124 164.251 123.587 164.15 124.058C164.116 124.235 164.074 124.42 164.04 124.597C163.805 125.85 163.62 127.121 163.493 128.392C163.477 128.577 163.46 128.762 163.443 128.947C163.401 129.419 163.367 129.89 163.342 130.37C163.333 130.555 163.317 130.74 163.308 130.934C163.283 131.565 163.266 132.204 163.266 132.844C163.266 137.085 163.872 141.327 165.084 145.425C165.286 146.107 165.505 146.789 165.74 147.462C166.329 149.154 167.045 150.812 167.844 152.436C169.923 156.644 172.7 160.591 176.21 164.092C177.994 165.876 179.887 167.458 181.873 168.872C182.664 169.436 183.481 169.974 184.297 170.479C187.015 172.154 189.877 173.526 192.831 174.552C194.859 175.259 196.921 175.815 199.008 176.219C201.793 176.757 204.621 177.027 207.449 177.027C208.08 177.027 208.72 177.01 209.351 176.984C209.536 176.984 209.721 176.968 209.898 176.959C210.377 176.934 210.857 176.9 211.345 176.858C211.514 176.841 211.69 176.833 211.859 176.816C212.49 176.757 213.121 176.682 213.744 176.589C213.828 176.581 213.912 176.564 213.996 176.547C214.543 176.463 215.09 176.37 215.637 176.269C215.822 176.235 216.008 176.202 216.193 176.16C216.681 176.059 217.161 175.958 217.649 175.84C217.8 175.806 217.952 175.773 218.103 175.739C218.717 175.587 219.332 175.419 219.938 175.242C220.072 175.2 220.207 175.158 220.342 175.116C220.821 174.973 221.301 174.813 221.772 174.653C221.966 174.586 222.159 174.519 222.353 174.451C222.816 174.283 223.287 174.106 223.742 173.93C223.885 173.871 224.028 173.82 224.171 173.761C224.743 173.526 225.315 173.282 225.879 173.021C226.073 172.928 226.266 172.836 226.46 172.743C226.847 172.558 227.226 172.373 227.604 172.179C227.832 172.061 228.067 171.943 228.295 171.817C228.673 171.615 229.044 171.405 229.414 171.194C229.708 171.026 230.011 170.849 230.306 170.673C230.651 170.462 230.996 170.252 231.341 170.033C231.375 170.008 231.408 169.991 231.442 169.966C232.023 169.587 232.603 169.192 233.176 168.779C233.235 168.745 233.285 168.703 233.344 168.67C238.654 165.32 244.949 163.376 251.69 163.376C258.431 163.376 265.105 165.438 270.516 168.981C270.794 169.166 271.072 169.351 271.341 169.545C271.652 169.755 271.964 169.949 272.275 170.151C272.595 170.353 272.915 170.563 273.243 170.757C273.495 170.908 273.756 171.06 274.017 171.203C274.337 171.388 274.657 171.565 274.985 171.742C275.229 171.876 275.465 172.002 275.709 172.129C276.155 172.356 276.601 172.575 277.055 172.793C277.224 172.878 277.4 172.962 277.569 173.038C278.082 173.273 278.604 173.5 279.126 173.711C279.328 173.795 279.53 173.871 279.74 173.955C280.161 174.123 280.582 174.275 281.002 174.426C281.196 174.493 281.398 174.569 281.591 174.637C282.172 174.838 282.753 175.024 283.334 175.2C283.359 175.2 283.384 175.217 283.409 175.226C284.024 175.411 284.646 175.571 285.261 175.722C285.437 175.764 285.623 175.806 285.799 175.848C286.271 175.958 286.733 176.059 287.205 176.16C287.381 176.193 287.567 176.235 287.743 176.269C288.997 176.505 290.268 176.69 291.539 176.816C291.724 176.833 291.909 176.85 292.086 176.867C292.557 176.909 293.028 176.942 293.508 176.968C293.693 176.976 293.878 176.993 294.064 177.001C294.703 177.027 295.334 177.043 295.974 177.043C297.388 177.043 298.802 176.976 300.207 176.841C301.613 176.707 303.018 176.505 304.415 176.236C306.502 175.832 308.572 175.276 310.592 174.569C316.668 172.448 322.366 168.956 327.222 164.1C332.077 159.244 335.57 153.547 337.691 147.47C337.926 146.797 338.145 146.116 338.347 145.434C339.559 141.335 340.165 137.094 340.165 132.852L340.19 132.844Z" fill="white"/>
</svg>
