<svg width="414" height="365" viewBox="0 0 414 365" fill="none" xmlns="http://www.w3.org/2000/svg">
<g filter="url(#filter0_d_1_3052)">
<path d="M93.0817 178.163C142.28 178.163 182.163 138.28 182.163 89.0817C182.163 39.8832 142.28 0 93.0817 0C43.8832 0 4 39.8832 4 89.0817C4 138.28 43.8832 178.163 93.0817 178.163Z" fill="black"/>
<path fill-rule="evenodd" clip-rule="evenodd" d="M158.118 194.359C164.562 194.359 170.741 196.919 175.298 201.476C179.854 206.031 182.413 212.211 182.413 218.655V331.904C182.413 338.347 179.854 344.527 175.298 349.083C170.741 353.639 164.562 356.198 158.118 356.198H28.5453C22.1014 356.198 15.9218 353.639 11.3657 349.083C6.80969 344.527 4.25024 338.347 4.25024 331.904V218.655C4.25024 212.211 6.80969 206.031 11.3657 201.476C15.9218 196.919 22.1014 194.359 28.5453 194.359H158.118Z" fill="black"/>
<path fill-rule="evenodd" clip-rule="evenodd" d="M409.125 291.541C409.125 327.298 380.095 356.327 344.338 356.327H263.147C227.39 356.327 198.36 327.298 198.36 291.541C198.36 255.784 227.39 226.754 263.147 226.754H344.338C380.095 226.754 409.125 255.784 409.125 291.541Z" fill="#F3B9C6"/>
<path fill-rule="evenodd" clip-rule="evenodd" d="M408.5 157.923C408.5 157.172 408.48 156.421 408.45 155.67C408.45 155.449 408.43 155.229 408.42 155.009C408.39 154.438 408.35 153.867 408.3 153.297C408.28 153.096 408.27 152.886 408.25 152.686C408.18 151.955 408.089 151.224 407.989 150.493C407.969 150.313 407.929 150.143 407.909 149.962C407.819 149.392 407.729 148.831 407.619 148.27C407.569 148.01 407.519 147.749 407.469 147.489C407.358 146.958 407.248 146.418 407.118 145.887C407.068 145.677 407.028 145.467 406.978 145.256C406.808 144.565 406.628 143.885 406.427 143.204C406.347 142.933 406.267 142.663 406.177 142.403C406.037 141.952 405.897 141.501 405.736 141.051C405.636 140.76 405.536 140.47 405.436 140.18C405.256 139.659 405.056 139.148 404.855 138.638C404.725 138.297 404.585 137.967 404.445 137.626C404.244 137.136 404.034 136.645 403.814 136.165C403.674 135.864 403.534 135.564 403.393 135.263C403.203 134.863 403.003 134.462 402.803 134.072C402.652 133.782 402.512 133.491 402.362 133.211C402.042 132.6 401.701 131.999 401.351 131.398C401.201 131.138 401.04 130.888 400.89 130.638C400.72 130.367 400.56 130.087 400.39 129.816C400.37 129.796 400.349 129.766 400.339 129.746C400.289 129.666 400.239 129.596 400.189 129.516C399.999 129.226 399.809 128.925 399.619 128.635C399.328 128.204 399.038 127.784 398.737 127.363C398.597 127.163 398.457 126.953 398.307 126.753C394.442 120.505 392.209 113.125 392.209 105.235C392.209 97.3448 394.372 90.1957 398.137 84.0077C398.137 83.9977 398.147 83.9977 398.147 83.9977C398.177 83.9577 398.207 83.9176 398.237 83.8776C398.437 83.6072 398.627 83.3369 398.818 83.0565C399.098 82.656 399.378 82.2655 399.649 81.865C399.849 81.5646 400.049 81.2542 400.239 80.9538C400.37 80.7535 400.51 80.5533 400.63 80.343C400.75 80.1528 400.86 79.9625 400.97 79.7723C401.12 79.522 401.281 79.2616 401.431 79.0113C401.751 78.4606 402.062 77.8999 402.362 77.3392C402.492 77.0889 402.622 76.8385 402.753 76.5782C403.003 76.0876 403.243 75.5969 403.484 75.1063C403.614 74.836 403.744 74.5556 403.864 74.2752C404.064 73.8247 404.265 73.3641 404.455 72.9135C404.555 72.6732 404.665 72.4329 404.755 72.1926C405.015 71.5417 405.266 70.8809 405.496 70.22C405.586 69.9797 405.666 69.7294 405.746 69.4791C405.907 68.9985 406.067 68.5079 406.217 68.0272C406.297 67.7669 406.377 67.5166 406.447 67.2562C406.638 66.5954 406.818 65.9345 406.988 65.2637C407.018 65.1335 407.048 64.9933 407.088 64.8632C407.238 64.2324 407.378 63.6016 407.499 62.9607C407.549 62.7204 407.589 62.4901 407.639 62.2498C407.739 61.6891 407.839 61.1184 407.929 60.5476C407.959 60.3674 407.989 60.1772 408.019 59.9969C408.119 59.266 408.21 58.5351 408.28 57.7941C408.3 57.6139 408.31 57.4337 408.33 57.2534C408.38 56.6627 408.42 56.0819 408.46 55.4912C408.47 55.2809 408.48 55.0606 408.49 54.8503C408.52 54.0994 408.54 53.3484 408.54 52.5974C408.54 51.7564 408.52 50.9153 408.48 50.0742C408.159 43.3556 406.557 36.677 403.674 30.4591C401.151 25.0121 397.636 19.9155 393.14 15.4198C385.44 7.70989 375.948 2.90372 366.005 0.981258C364.343 0.660847 362.681 0.420539 360.999 0.260334C359.327 0.100128 357.645 0.0200257 355.963 0.0200257C355.212 0.0200257 354.461 0.0400514 353.71 0.0700899C353.489 0.0700899 353.269 0.0901156 353.049 0.100128C352.478 0.130167 351.907 0.170218 351.337 0.220282C351.136 0.240308 350.926 0.250321 350.726 0.270347C349.995 0.340437 349.264 0.430552 348.533 0.53068C348.353 0.550706 348.183 0.590758 348.012 0.610783C347.442 0.700899 346.881 0.791014 346.31 0.901156C346.05 0.95122 345.79 1.00128 345.539 1.05135C344.999 1.16149 344.468 1.28164 343.937 1.4018C343.727 1.45186 343.517 1.49191 343.306 1.54198C342.615 1.7122 341.935 1.90244 341.254 2.09268C340.983 2.17279 340.723 2.25289 340.453 2.33299C340.002 2.47317 339.542 2.62336 339.091 2.77356C338.801 2.87368 338.51 2.97381 338.22 3.07394C337.699 3.26419 337.188 3.45443 336.678 3.65469C336.337 3.78485 336.007 3.92503 335.677 4.06521C335.186 4.26547 334.695 4.48575 334.215 4.70604C333.914 4.84621 333.614 4.98639 333.314 5.12657C332.913 5.31682 332.512 5.51707 332.122 5.71733C331.832 5.86752 331.541 6.0077 331.261 6.1579C330.65 6.47831 330.049 6.81874 329.449 7.16919C329.188 7.31939 328.938 7.47959 328.688 7.6398C328.417 7.81002 328.137 7.97022 327.867 8.14044C327.846 8.16046 327.816 8.18049 327.796 8.1905C327.716 8.24057 327.646 8.29063 327.566 8.3407C327.276 8.53094 326.975 8.72118 326.685 8.92144C326.264 9.2018 325.844 9.50218 325.423 9.80257C325.223 9.95276 325.013 10.0829 324.813 10.2331C318.565 14.0981 311.185 16.3309 303.295 16.3309C295.405 16.3309 288.256 14.1682 282.068 10.4033C282.058 10.4033 282.058 10.3933 282.058 10.3933C282.018 10.3633 281.978 10.3333 281.938 10.3032C281.667 10.103 281.397 9.91271 281.127 9.72247C280.726 9.44211 280.336 9.16175 279.925 8.8914C279.625 8.69114 279.314 8.49089 279.014 8.30064C278.814 8.17048 278.613 8.0303 278.403 7.91014C278.213 7.78999 278.023 7.67985 277.832 7.56971C277.582 7.41952 277.322 7.25931 277.071 7.10912C276.521 6.78871 275.97 6.47831 275.409 6.17792C275.159 6.03774 274.899 5.90758 274.648 5.77741C274.158 5.52709 273.677 5.28678 273.186 5.05648C272.916 4.92632 272.636 4.79615 272.355 4.676C271.905 4.47574 271.444 4.27548 270.994 4.08524C270.753 3.98511 270.513 3.87497 270.273 3.78485C269.622 3.52452 268.961 3.2742 268.3 3.0439C268.05 2.95379 267.81 2.87369 267.559 2.79358C267.079 2.63338 266.588 2.47317 266.107 2.32298C265.847 2.24288 265.597 2.16277 265.336 2.09268C264.675 1.90244 264.015 1.72221 263.344 1.55199C263.204 1.52195 263.073 1.49191 262.933 1.45186C262.302 1.30167 261.672 1.16149 261.041 1.04134C260.801 0.991271 260.57 0.95122 260.33 0.901156C259.769 0.801027 259.198 0.700899 258.638 0.610783C258.458 0.580745 258.267 0.550706 258.087 0.520668C257.356 0.420539 256.625 0.330424 255.884 0.260334C255.704 0.240308 255.524 0.230295 255.344 0.21027C254.753 0.160205 254.172 0.120154 253.581 0.0801027C253.371 0.0700899 253.151 0.060077 252.94 0.0500642C252.189 0.0200257 251.439 0 250.688 0C247.323 0 243.959 0.320411 240.645 0.961233C238.162 1.44185 235.698 2.1027 233.295 2.94377C226.066 5.46701 219.287 9.62234 213.51 15.3997C210.937 17.963 208.694 20.7266 206.771 23.6503C205.81 25.1122 204.929 26.6041 204.128 28.1261C200.433 35.0249 198.451 42.5245 198.09 50.0842C198.05 50.9253 198.03 51.7664 198.03 52.6075C198.03 53.3584 198.05 54.1194 198.08 54.8704C198.08 55.0906 198.1 55.3109 198.11 55.5212C198.14 56.0919 198.18 56.6627 198.23 57.2434C198.25 57.4437 198.26 57.6539 198.28 57.8542C198.35 58.6052 198.441 59.3561 198.551 60.0971C198.561 60.1972 198.581 60.2973 198.601 60.3975C198.701 61.0483 198.811 61.6991 198.931 62.35C198.971 62.5702 199.011 62.7905 199.061 63.0108C199.182 63.5915 199.302 64.1623 199.442 64.743C199.482 64.9232 199.522 65.1035 199.562 65.2737C199.742 66.0046 199.942 66.7356 200.153 67.4565C200.203 67.6167 200.253 67.7769 200.303 67.9371C200.473 68.5079 200.663 69.0786 200.854 69.6393C200.934 69.8696 201.014 70.0999 201.094 70.3302C201.294 70.8809 201.504 71.4416 201.715 71.9823C201.785 72.1525 201.845 72.3227 201.915 72.493C202.195 73.1738 202.486 73.8547 202.796 74.5256C202.906 74.7559 203.016 74.9862 203.127 75.2165C203.347 75.677 203.567 76.1276 203.797 76.5782C203.938 76.8485 204.078 77.1289 204.228 77.3993C204.468 77.8498 204.719 78.2904 204.969 78.731C205.179 79.0914 205.389 79.4519 205.6 79.8023C205.85 80.2129 206.1 80.6234 206.361 81.0239C206.391 81.0639 206.411 81.104 206.441 81.1441C206.891 81.845 207.362 82.5258 207.853 83.2067C207.893 83.2768 207.943 83.3369 207.983 83.3969C211.968 89.715 214.281 97.2046 214.281 105.225C214.281 113.245 211.828 121.185 207.612 127.624C207.392 127.954 207.172 128.285 206.941 128.605C206.701 128.965 206.461 129.336 206.231 129.696C205.98 130.087 205.74 130.467 205.5 130.868C205.319 131.168 205.139 131.479 204.969 131.779C204.749 132.159 204.538 132.55 204.328 132.93C204.178 133.221 204.018 133.501 203.868 133.792C203.597 134.322 203.327 134.853 203.077 135.394C202.976 135.594 202.886 135.794 202.786 135.994C202.506 136.615 202.235 137.236 201.975 137.857C201.875 138.097 201.785 138.337 201.685 138.578C201.484 139.078 201.294 139.579 201.114 140.08C201.034 140.31 200.944 140.54 200.864 140.781C200.623 141.471 200.403 142.152 200.193 142.853C200.193 142.883 200.173 142.913 200.163 142.953C199.942 143.684 199.752 144.425 199.572 145.156C199.522 145.366 199.472 145.587 199.422 145.797C199.292 146.358 199.172 146.908 199.051 147.469C199.011 147.679 198.961 147.9 198.921 148.11C198.641 149.602 198.421 151.114 198.27 152.626C198.25 152.846 198.23 153.066 198.21 153.287C198.16 153.847 198.12 154.408 198.09 154.979C198.08 155.199 198.06 155.419 198.05 155.65C198.02 156.401 198 157.162 198 157.923C198 162.969 198.721 168.015 200.163 172.892C200.403 173.703 200.663 174.514 200.944 175.315C201.645 177.327 202.496 179.3 203.447 181.232C205.92 186.239 209.224 190.935 213.4 195.1C215.522 197.223 217.775 199.105 220.138 200.787C221.08 201.458 222.051 202.099 223.022 202.7C226.256 204.692 229.661 206.325 233.175 207.546C235.588 208.387 238.041 209.048 240.525 209.529C243.839 210.169 247.203 210.49 250.567 210.49C251.318 210.49 252.079 210.47 252.83 210.44C253.051 210.44 253.271 210.42 253.481 210.41C254.052 210.38 254.623 210.34 255.203 210.29C255.404 210.27 255.614 210.26 255.814 210.24C256.565 210.17 257.316 210.079 258.057 209.969C258.157 209.959 258.257 209.939 258.357 209.919C259.008 209.819 259.659 209.709 260.31 209.589C260.53 209.549 260.75 209.509 260.971 209.459C261.551 209.338 262.122 209.218 262.703 209.078C262.883 209.038 263.063 208.998 263.244 208.958C263.975 208.778 264.706 208.577 265.426 208.367C265.587 208.317 265.747 208.267 265.907 208.217C266.478 208.047 267.049 207.857 267.609 207.666C267.84 207.586 268.07 207.506 268.3 207.426C268.851 207.226 269.412 207.015 269.952 206.805C270.122 206.735 270.293 206.675 270.463 206.605C271.144 206.325 271.825 206.034 272.496 205.724C272.726 205.614 272.956 205.504 273.186 205.393C273.647 205.173 274.098 204.953 274.548 204.723C274.819 204.582 275.099 204.442 275.369 204.292C275.82 204.052 276.26 203.801 276.701 203.551C277.051 203.351 277.412 203.141 277.762 202.93C278.173 202.68 278.583 202.43 278.994 202.169C279.034 202.139 279.074 202.119 279.114 202.089C279.805 201.639 280.496 201.168 281.177 200.677C281.247 200.637 281.307 200.587 281.377 200.547C287.695 196.562 295.185 194.249 303.205 194.249C311.225 194.249 319.165 196.702 325.604 200.918C325.934 201.138 326.264 201.358 326.585 201.589C326.955 201.839 327.326 202.069 327.696 202.309C328.077 202.55 328.457 202.8 328.848 203.03C329.148 203.211 329.459 203.391 329.769 203.561C330.149 203.781 330.53 203.992 330.92 204.202C331.211 204.362 331.491 204.512 331.782 204.662C332.312 204.933 332.843 205.193 333.384 205.453C333.584 205.554 333.794 205.654 333.994 205.744C334.605 206.024 335.226 206.295 335.847 206.545C336.087 206.645 336.327 206.735 336.578 206.835C337.078 207.035 337.579 207.216 338.08 207.396C338.31 207.476 338.55 207.566 338.781 207.646C339.471 207.887 340.162 208.107 340.853 208.317C340.883 208.317 340.913 208.337 340.943 208.347C341.674 208.567 342.415 208.758 343.146 208.938C343.356 208.988 343.577 209.038 343.787 209.088C344.348 209.218 344.898 209.338 345.459 209.459C345.669 209.499 345.89 209.549 346.1 209.589C347.592 209.869 349.104 210.089 350.616 210.24C350.836 210.26 351.056 210.28 351.267 210.3C351.827 210.35 352.388 210.39 352.959 210.42C353.179 210.43 353.399 210.45 353.62 210.46C354.381 210.49 355.132 210.51 355.892 210.51C357.575 210.51 359.257 210.43 360.929 210.27C362.601 210.109 364.273 209.869 365.935 209.549C368.419 209.068 370.882 208.407 373.285 207.566C380.514 205.043 387.293 200.888 393.07 195.11C398.848 189.333 403.003 182.554 405.526 175.325C405.806 174.524 406.067 173.713 406.307 172.902C407.749 168.025 408.47 162.979 408.47 157.933L408.5 157.923Z" fill="#FB823A"/>
</g>
<defs>
<filter id="filter0_d_1_3052" x="0" y="0" width="413.491" height="364.328" filterUnits="userSpaceOnUse" color-interpolation-filters="sRGB">
<feFlood flood-opacity="0" result="BackgroundImageFix"/>
<feColorMatrix in="SourceAlpha" type="matrix" values="0 0 0 0 0 0 0 0 0 0 0 0 0 0 0 0 0 0 127 0" result="hardAlpha"/>
<feOffset dy="4"/>
<feGaussianBlur stdDeviation="2"/>
<feComposite in2="hardAlpha" operator="out"/>
<feColorMatrix type="matrix" values="0 0 0 0 0 0 0 0 0 0 0 0 0 0 0 0 0 0 0.25 0"/>
<feBlend mode="normal" in2="BackgroundImageFix" result="effect1_dropShadow_1_3052"/>
<feBlend mode="normal" in="SourceGraphic" in2="effect1_dropShadow_1_3052" result="shape"/>
</filter>
</defs>
</svg>
