<svg width="406" height="357" viewBox="0 0 406 357" fill="none" xmlns="http://www.w3.org/2000/svg">
<path d="M89.0817 178.492C138.28 178.492 178.163 138.608 178.163 89.4098C178.163 40.2114 138.28 0.328125 89.0817 0.328125C39.8832 0.328125 0 40.2114 0 89.4098C0 138.608 39.8832 178.492 89.0817 178.492Z" fill="black"/>
<path fill-rule="evenodd" clip-rule="evenodd" d="M154.118 194.688C160.562 194.688 166.741 197.247 171.298 201.804C175.854 206.359 178.413 212.539 178.413 218.983V332.232C178.413 338.675 175.854 344.855 171.298 349.411C166.741 353.967 160.562 356.526 154.118 356.526H24.5453C18.1014 356.526 11.9218 353.967 7.36573 349.411C2.80969 344.855 0.250244 338.675 0.250244 332.232V218.983C0.250244 212.539 2.80969 206.359 7.36573 201.804C11.9218 197.247 18.1014 194.688 24.5453 194.688H154.118Z" fill="black"/>
<path fill-rule="evenodd" clip-rule="evenodd" d="M405.125 291.869C405.125 327.626 376.095 356.655 340.338 356.655H259.147C223.39 356.655 194.36 327.626 194.36 291.869C194.36 256.112 223.39 227.082 259.147 227.082H340.338C376.095 227.082 405.125 256.112 405.125 291.869Z" fill="black"/>
<path fill-rule="evenodd" clip-rule="evenodd" d="M404.5 157.923C404.5 157.172 404.48 156.421 404.45 155.67C404.45 155.449 404.43 155.229 404.42 155.009C404.39 154.438 404.35 153.867 404.3 153.297C404.28 153.096 404.27 152.886 404.25 152.686C404.18 151.955 404.089 151.224 403.989 150.493C403.969 150.313 403.929 150.143 403.909 149.962C403.819 149.392 403.729 148.831 403.619 148.27C403.569 148.01 403.519 147.749 403.469 147.489C403.358 146.958 403.248 146.418 403.118 145.887C403.068 145.677 403.028 145.467 402.978 145.256C402.808 144.565 402.628 143.885 402.427 143.204C402.347 142.933 402.267 142.663 402.177 142.403C402.037 141.952 401.897 141.501 401.736 141.051C401.636 140.76 401.536 140.47 401.436 140.18C401.256 139.659 401.056 139.148 400.855 138.638C400.725 138.297 400.585 137.967 400.445 137.626C400.244 137.136 400.034 136.645 399.814 136.165C399.674 135.864 399.534 135.564 399.393 135.263C399.203 134.863 399.003 134.462 398.803 134.072C398.652 133.782 398.512 133.491 398.362 133.211C398.042 132.6 397.701 131.999 397.351 131.398C397.201 131.138 397.04 130.888 396.89 130.638C396.72 130.367 396.56 130.087 396.39 129.816C396.37 129.796 396.349 129.766 396.339 129.746C396.289 129.666 396.239 129.596 396.189 129.516C395.999 129.226 395.809 128.925 395.619 128.635C395.328 128.204 395.038 127.784 394.737 127.363C394.597 127.163 394.457 126.953 394.307 126.753C390.442 120.505 388.209 113.125 388.209 105.235C388.209 97.3448 390.372 90.1957 394.137 84.0077C394.137 83.9977 394.147 83.9977 394.147 83.9977C394.177 83.9577 394.207 83.9176 394.237 83.8776C394.437 83.6072 394.627 83.3369 394.818 83.0565C395.098 82.656 395.378 82.2655 395.649 81.865C395.849 81.5646 396.049 81.2542 396.239 80.9538C396.37 80.7535 396.51 80.5533 396.63 80.343C396.75 80.1528 396.86 79.9625 396.97 79.7723C397.12 79.522 397.281 79.2616 397.431 79.0113C397.751 78.4606 398.062 77.8999 398.362 77.3392C398.492 77.0889 398.622 76.8385 398.753 76.5782C399.003 76.0876 399.243 75.5969 399.484 75.1063C399.614 74.836 399.744 74.5556 399.864 74.2752C400.064 73.8247 400.265 73.3641 400.455 72.9135C400.555 72.6732 400.665 72.4329 400.755 72.1926C401.015 71.5417 401.266 70.8809 401.496 70.22C401.586 69.9797 401.666 69.7294 401.746 69.4791C401.907 68.9985 402.067 68.5079 402.217 68.0272C402.297 67.7669 402.377 67.5166 402.447 67.2562C402.638 66.5954 402.818 65.9345 402.988 65.2637C403.018 65.1335 403.048 64.9933 403.088 64.8632C403.238 64.2324 403.378 63.6016 403.499 62.9607C403.549 62.7204 403.589 62.4901 403.639 62.2498C403.739 61.6891 403.839 61.1184 403.929 60.5476C403.959 60.3674 403.989 60.1772 404.019 59.9969C404.119 59.266 404.21 58.5351 404.28 57.7941C404.3 57.6139 404.31 57.4337 404.33 57.2534C404.38 56.6627 404.42 56.0819 404.46 55.4912C404.47 55.2809 404.48 55.0606 404.49 54.8503C404.52 54.0994 404.54 53.3484 404.54 52.5974C404.54 51.7564 404.52 50.9153 404.48 50.0742C404.159 43.3556 402.557 36.677 399.674 30.4591C397.151 25.0121 393.636 19.9155 389.14 15.4198C381.44 7.70989 371.948 2.90372 362.005 0.981258C360.343 0.660847 358.681 0.420539 356.999 0.260334C355.327 0.100128 353.645 0.0200257 351.963 0.0200257C351.212 0.0200257 350.461 0.0400514 349.71 0.0700899C349.489 0.0700899 349.269 0.0901156 349.049 0.100128C348.478 0.130167 347.907 0.170218 347.337 0.220282C347.136 0.240308 346.926 0.250321 346.726 0.270347C345.995 0.340437 345.264 0.430552 344.533 0.53068C344.353 0.550706 344.183 0.590758 344.012 0.610783C343.442 0.700899 342.881 0.791014 342.31 0.901156C342.05 0.95122 341.79 1.00128 341.539 1.05135C340.999 1.16149 340.468 1.28164 339.937 1.4018C339.727 1.45186 339.517 1.49191 339.306 1.54198C338.615 1.7122 337.935 1.90244 337.254 2.09268C336.983 2.17279 336.723 2.25289 336.453 2.33299C336.002 2.47317 335.542 2.62336 335.091 2.77356C334.801 2.87368 334.51 2.97381 334.22 3.07394C333.699 3.26419 333.188 3.45443 332.678 3.65469C332.337 3.78485 332.007 3.92503 331.677 4.06521C331.186 4.26547 330.695 4.48575 330.215 4.70604C329.914 4.84621 329.614 4.98639 329.314 5.12657C328.913 5.31682 328.512 5.51707 328.122 5.71733C327.832 5.86752 327.541 6.0077 327.261 6.1579C326.65 6.47831 326.049 6.81874 325.449 7.16919C325.188 7.31939 324.938 7.47959 324.688 7.6398C324.417 7.81002 324.137 7.97022 323.867 8.14044C323.846 8.16046 323.816 8.18049 323.796 8.1905C323.716 8.24057 323.646 8.29063 323.566 8.3407C323.276 8.53094 322.975 8.72118 322.685 8.92144C322.264 9.2018 321.844 9.50218 321.423 9.80257C321.223 9.95276 321.013 10.0829 320.813 10.2331C314.565 14.0981 307.185 16.3309 299.295 16.3309C291.405 16.3309 284.256 14.1682 278.068 10.4033C278.058 10.4033 278.058 10.3933 278.058 10.3933C278.018 10.3633 277.978 10.3333 277.938 10.3032C277.667 10.103 277.397 9.91271 277.127 9.72247C276.726 9.44211 276.336 9.16175 275.925 8.8914C275.625 8.69114 275.314 8.49089 275.014 8.30064C274.814 8.17048 274.613 8.0303 274.403 7.91014C274.213 7.78999 274.023 7.67985 273.832 7.56971C273.582 7.41952 273.322 7.25931 273.071 7.10912C272.521 6.78871 271.97 6.47831 271.409 6.17792C271.159 6.03774 270.899 5.90758 270.648 5.77741C270.158 5.52709 269.677 5.28678 269.186 5.05648C268.916 4.92632 268.636 4.79615 268.355 4.676C267.905 4.47574 267.444 4.27548 266.994 4.08524C266.753 3.98511 266.513 3.87497 266.273 3.78485C265.622 3.52452 264.961 3.2742 264.3 3.0439C264.05 2.95379 263.81 2.87369 263.559 2.79358C263.079 2.63338 262.588 2.47317 262.107 2.32298C261.847 2.24288 261.597 2.16277 261.336 2.09268C260.675 1.90244 260.015 1.72221 259.344 1.55199C259.204 1.52195 259.073 1.49191 258.933 1.45186C258.302 1.30167 257.672 1.16149 257.041 1.04134C256.801 0.991271 256.57 0.95122 256.33 0.901156C255.769 0.801027 255.198 0.700899 254.638 0.610783C254.458 0.580745 254.267 0.550706 254.087 0.520668C253.356 0.420539 252.625 0.330424 251.884 0.260334C251.704 0.240308 251.524 0.230295 251.344 0.21027C250.753 0.160205 250.172 0.120154 249.581 0.0801027C249.371 0.0700899 249.151 0.060077 248.94 0.0500642C248.189 0.0200257 247.439 0 246.688 0C243.323 0 239.959 0.320411 236.645 0.961233C234.162 1.44185 231.698 2.1027 229.295 2.94377C222.066 5.46701 215.287 9.62234 209.51 15.3997C206.937 17.963 204.694 20.7266 202.771 23.6503C201.81 25.1122 200.929 26.6041 200.128 28.1261C196.433 35.0249 194.451 42.5245 194.09 50.0842C194.05 50.9253 194.03 51.7664 194.03 52.6075C194.03 53.3584 194.05 54.1194 194.08 54.8704C194.08 55.0906 194.1 55.3109 194.11 55.5212C194.14 56.0919 194.18 56.6627 194.23 57.2434C194.25 57.4437 194.26 57.6539 194.28 57.8542C194.35 58.6052 194.441 59.3561 194.551 60.0971C194.561 60.1972 194.581 60.2973 194.601 60.3975C194.701 61.0483 194.811 61.6991 194.931 62.35C194.971 62.5702 195.011 62.7905 195.061 63.0108C195.182 63.5915 195.302 64.1623 195.442 64.743C195.482 64.9232 195.522 65.1035 195.562 65.2737C195.742 66.0046 195.942 66.7356 196.153 67.4565C196.203 67.6167 196.253 67.7769 196.303 67.9371C196.473 68.5079 196.663 69.0786 196.854 69.6393C196.934 69.8696 197.014 70.0999 197.094 70.3302C197.294 70.8809 197.504 71.4416 197.715 71.9823C197.785 72.1525 197.845 72.3227 197.915 72.493C198.195 73.1738 198.486 73.8547 198.796 74.5256C198.906 74.7559 199.016 74.9862 199.127 75.2165C199.347 75.677 199.567 76.1276 199.797 76.5782C199.938 76.8485 200.078 77.1289 200.228 77.3993C200.468 77.8498 200.719 78.2904 200.969 78.731C201.179 79.0914 201.389 79.4519 201.6 79.8023C201.85 80.2129 202.1 80.6234 202.361 81.0239C202.391 81.0639 202.411 81.104 202.441 81.1441C202.891 81.845 203.362 82.5258 203.853 83.2067C203.893 83.2768 203.943 83.3369 203.983 83.3969C207.968 89.715 210.281 97.2046 210.281 105.225C210.281 113.245 207.828 121.185 203.612 127.624C203.392 127.954 203.172 128.285 202.941 128.605C202.701 128.965 202.461 129.336 202.231 129.696C201.98 130.087 201.74 130.467 201.5 130.868C201.319 131.168 201.139 131.479 200.969 131.779C200.749 132.159 200.538 132.55 200.328 132.93C200.178 133.221 200.018 133.501 199.868 133.792C199.597 134.322 199.327 134.853 199.077 135.394C198.976 135.594 198.886 135.794 198.786 135.994C198.506 136.615 198.235 137.236 197.975 137.857C197.875 138.097 197.785 138.337 197.685 138.578C197.484 139.078 197.294 139.579 197.114 140.08C197.034 140.31 196.944 140.54 196.864 140.781C196.623 141.471 196.403 142.152 196.193 142.853C196.193 142.883 196.173 142.913 196.163 142.953C195.942 143.684 195.752 144.425 195.572 145.156C195.522 145.366 195.472 145.587 195.422 145.797C195.292 146.358 195.172 146.908 195.051 147.469C195.011 147.679 194.961 147.9 194.921 148.11C194.641 149.602 194.421 151.114 194.27 152.626C194.25 152.846 194.23 153.066 194.21 153.287C194.16 153.847 194.12 154.408 194.09 154.979C194.08 155.199 194.06 155.419 194.05 155.65C194.02 156.401 194 157.162 194 157.923C194 162.969 194.721 168.015 196.163 172.892C196.403 173.703 196.663 174.514 196.944 175.315C197.645 177.327 198.496 179.3 199.447 181.232C201.92 186.239 205.224 190.935 209.4 195.1C211.522 197.223 213.775 199.105 216.138 200.787C217.08 201.458 218.051 202.099 219.022 202.7C222.256 204.692 225.661 206.325 229.175 207.546C231.588 208.387 234.041 209.048 236.525 209.529C239.839 210.169 243.203 210.49 246.567 210.49C247.318 210.49 248.079 210.47 248.83 210.44C249.051 210.44 249.271 210.42 249.481 210.41C250.052 210.38 250.623 210.34 251.203 210.29C251.404 210.27 251.614 210.26 251.814 210.24C252.565 210.17 253.316 210.079 254.057 209.969C254.157 209.959 254.257 209.939 254.357 209.919C255.008 209.819 255.659 209.709 256.31 209.589C256.53 209.549 256.75 209.509 256.971 209.459C257.551 209.338 258.122 209.218 258.703 209.078C258.883 209.038 259.063 208.998 259.244 208.958C259.975 208.778 260.706 208.577 261.426 208.367C261.587 208.317 261.747 208.267 261.907 208.217C262.478 208.047 263.049 207.857 263.609 207.666C263.84 207.586 264.07 207.506 264.3 207.426C264.851 207.226 265.412 207.015 265.952 206.805C266.122 206.735 266.293 206.675 266.463 206.605C267.144 206.325 267.825 206.034 268.496 205.724C268.726 205.614 268.956 205.504 269.186 205.393C269.647 205.173 270.098 204.953 270.548 204.723C270.819 204.582 271.099 204.442 271.369 204.292C271.82 204.052 272.26 203.801 272.701 203.551C273.051 203.351 273.412 203.141 273.762 202.93C274.173 202.68 274.583 202.43 274.994 202.169C275.034 202.139 275.074 202.119 275.114 202.089C275.805 201.639 276.496 201.168 277.177 200.677C277.247 200.637 277.307 200.587 277.377 200.547C283.695 196.562 291.185 194.249 299.205 194.249C307.225 194.249 315.165 196.702 321.604 200.918C321.934 201.138 322.264 201.358 322.585 201.589C322.955 201.839 323.326 202.069 323.696 202.309C324.077 202.55 324.457 202.8 324.848 203.03C325.148 203.211 325.459 203.391 325.769 203.561C326.149 203.781 326.53 203.992 326.92 204.202C327.211 204.362 327.491 204.512 327.782 204.662C328.312 204.933 328.843 205.193 329.384 205.453C329.584 205.554 329.794 205.654 329.994 205.744C330.605 206.024 331.226 206.295 331.847 206.545C332.087 206.645 332.327 206.735 332.578 206.835C333.078 207.035 333.579 207.216 334.08 207.396C334.31 207.476 334.55 207.566 334.781 207.646C335.471 207.887 336.162 208.107 336.853 208.317C336.883 208.317 336.913 208.337 336.943 208.347C337.674 208.567 338.415 208.758 339.146 208.938C339.356 208.988 339.577 209.038 339.787 209.088C340.348 209.218 340.898 209.338 341.459 209.459C341.669 209.499 341.89 209.549 342.1 209.589C343.592 209.869 345.104 210.089 346.616 210.24C346.836 210.26 347.056 210.28 347.267 210.3C347.827 210.35 348.388 210.39 348.959 210.42C349.179 210.43 349.399 210.45 349.62 210.46C350.381 210.49 351.132 210.51 351.892 210.51C353.575 210.51 355.257 210.43 356.929 210.27C358.601 210.109 360.273 209.869 361.935 209.549C364.419 209.068 366.882 208.407 369.285 207.566C376.514 205.043 383.293 200.888 389.07 195.11C394.848 189.333 399.003 182.554 401.526 175.325C401.806 174.524 402.067 173.713 402.307 172.902C403.749 168.025 404.47 162.979 404.47 157.933L404.5 157.923Z" fill="black"/>
</svg>
