<svg xmlns="http://www.w3.org/2000/svg" xmlns:xlink="http://www.w3.org/1999/xlink" width="1024" zoomAndPan="magnify" viewBox="0 0 768 767.999994" height="1024" preserveAspectRatio="xMidYMid meet" version="1.0"><defs><clipPath id="6757b09a05"><path d="M 56 61.699219 L 701 61.699219 L 701 705.949219 L 56 705.949219 Z M 56 61.699219 " clip-rule="nonzero"/></clipPath></defs><g clip-path="url(#6757b09a05)"><path fill="#ffffff" d="M 660.609375 287.449219 L 474.847656 101.6875 C 421.527344 48.371094 335.078125 48.371094 281.742188 101.6875 L 95.988281 287.449219 C 42.671875 340.765625 42.671875 427.210938 95.988281 480.546875 L 281.753906 666.3125 C 335.078125 719.628906 421.527344 719.628906 474.859375 666.3125 L 660.621094 480.546875 C 713.929688 427.210938 713.929688 340.765625 660.609375 287.449219 Z M 497.175781 373.613281 C 497.175781 396.722656 490.671875 413.679688 482.40625 430.832031 C 468.371094 459.980469 393.171875 538.882812 392.652344 539.460938 C 388.941406 543.101562 383.949219 545.140625 378.75 545.140625 C 373.550781 545.140625 368.5625 543.101562 364.851562 539.460938 C 364.050781 538.507812 293.855469 458.46875 278.59375 426.398438 C 268.460938 405.132812 259.449219 381.234375 259.449219 351.910156 C 259.449219 270.0625 313.609375 222.828125 382.421875 222.828125 C 440.585938 222.828125 485.6875 256.171875 494.078125 304.136719 C 494.15625 304.613281 494.128906 305.101562 493.996094 305.5625 C 493.867188 306.027344 493.636719 306.457031 493.320312 306.820312 C 493.007812 307.183594 492.613281 307.472656 492.175781 307.671875 C 491.734375 307.867188 491.257812 307.964844 490.777344 307.957031 L 435.839844 307.957031 C 435.003906 307.96875 434.183594 307.71875 433.496094 307.242188 C 432.808594 306.769531 432.289062 306.089844 432.007812 305.300781 C 425.40625 285.96875 408.3125 274.574219 383.871094 274.738281 C 345.808594 274.5625 321.667969 302.597656 321.667969 351.21875 C 321.667969 400.1875 344.722656 428.394531 383.871094 428.394531 C 416.835938 428.394531 435.925781 412.660156 438.335938 387.535156 C 438.371094 387.074219 438.3125 386.613281 438.15625 386.179688 C 438.003906 385.746094 437.761719 385.347656 437.445312 385.011719 C 437.128906 384.675781 436.746094 384.414062 436.320312 384.234375 C 435.898438 384.054688 435.4375 383.96875 434.976562 383.980469 L 382.21875 383.980469 C 381.195312 383.992188 380.207031 383.597656 379.472656 382.882812 C 378.738281 382.167969 378.316406 381.191406 378.300781 380.167969 L 378.300781 344.546875 C 378.316406 343.523438 378.738281 342.546875 379.472656 341.835938 C 380.207031 341.121094 381.195312 340.726562 382.21875 340.738281 L 493.203125 340.738281 C 494.230469 340.726562 495.214844 341.121094 495.949219 341.835938 C 496.683594 342.550781 497.105469 343.523438 497.125 344.546875 Z M 497.175781 373.613281 " fill-opacity="1" fill-rule="nonzero"/></g></svg>