<svg xmlns="http://www.w3.org/2000/svg" xmlns:xlink="http://www.w3.org/1999/xlink" width="1024" zoomAndPan="magnify" viewBox="0 0 768 767.999994" height="1024" preserveAspectRatio="xMidYMid meet" version="1.0"><defs><clipPath id="c6fe1e778c"><path d="M 56 61.699219 L 701 61.699219 L 701 705.949219 L 56 705.949219 Z M 56 61.699219 " clip-rule="nonzero"/></clipPath></defs><g clip-path="url(#c6fe1e778c)"><path fill="#000000" d="M 660.695312 287.324219 L 474.90625 101.664062 C 421.582031 48.375 335.121094 48.375 281.777344 101.664062 L 95.996094 287.324219 C 42.671875 340.613281 42.671875 427.011719 95.996094 480.316406 L 281.789062 665.984375 C 335.121094 719.269531 421.582031 719.269531 474.917969 665.984375 L 660.707031 480.316406 C 714.023438 427.011719 714.023438 340.613281 660.695312 287.324219 Z M 497.238281 373.445312 C 497.238281 396.542969 490.730469 413.488281 482.46875 430.632812 C 468.429688 459.765625 393.21875 538.625 392.699219 539.199219 C 388.988281 542.839844 383.996094 544.878906 378.796875 544.878906 C 373.597656 544.878906 368.605469 542.839844 364.894531 539.199219 C 364.09375 538.25 293.890625 458.253906 278.625 426.199219 C 268.492188 404.945312 259.480469 381.058594 259.480469 351.75 C 259.480469 269.949219 313.644531 222.742188 382.46875 222.742188 C 440.640625 222.742188 485.75 256.066406 494.140625 304.007812 C 494.21875 304.480469 494.191406 304.96875 494.058594 305.429688 C 493.929688 305.894531 493.699219 306.320312 493.382812 306.6875 C 493.070312 307.050781 492.675781 307.339844 492.238281 307.535156 C 491.796875 307.734375 491.320312 307.828125 490.839844 307.820312 L 435.894531 307.820312 C 435.058594 307.835938 434.238281 307.585938 433.550781 307.109375 C 432.863281 306.632812 432.34375 305.957031 432.058594 305.167969 C 425.460938 285.847656 408.363281 274.457031 383.917969 274.621094 C 345.851562 274.449219 321.707031 302.46875 321.707031 351.0625 C 321.707031 400.003906 344.765625 428.195312 383.917969 428.195312 C 416.890625 428.195312 435.976562 412.46875 438.390625 387.355469 C 438.425781 386.898438 438.367188 386.4375 438.210938 386 C 438.058594 385.566406 437.816406 385.171875 437.5 384.835938 C 437.183594 384.5 436.800781 384.234375 436.375 384.058594 C 435.949219 383.878906 435.492188 383.792969 435.03125 383.804688 L 382.265625 383.804688 C 381.242188 383.816406 380.253906 383.421875 379.519531 382.707031 C 378.785156 381.996094 378.363281 381.019531 378.347656 379.996094 L 378.347656 344.394531 C 378.363281 343.371094 378.785156 342.394531 379.519531 341.683594 C 380.253906 340.964844 381.242188 340.574219 382.265625 340.585938 L 493.265625 340.585938 C 494.292969 340.574219 495.277344 340.96875 496.011719 341.683594 C 496.746094 342.398438 497.167969 343.371094 497.1875 344.394531 Z M 497.238281 373.445312 " fill-opacity="1" fill-rule="nonzero"/></g></svg>